<?xml version="1.0" standalone="no"?>
<!DOCTYPE svg PUBLIC "-//W3C//DTD SVG 20010904//EN"
 "http://www.w3.org/TR/2001/REC-SVG-20010904/DTD/svg10.dtd">
<svg version="1.0" xmlns="http://www.w3.org/2000/svg"
 width="500.000000pt" height="500.000000pt" viewBox="0 0 500.000000 500.000000"
 preserveAspectRatio="xMidYMid meet">

<g transform="translate(0.000000,500.000000) scale(0.100000,-0.100000)"
fill="#000000" stroke="none">
<path d="M500 2580 l0 -2080 2080 0 2080 0 0 2080 0 2080 -2080 0 -2080 0 0
-2080z m4140 5 l0 -2055 -2055 0 -2055 0 0 2055 0 2055 2055 0 2055 0 0 -2055z"/>
<path d="M721 3258 l-51 -52 0 -161 0 -161 48 -47 48 -47 197 0 197 0 0 50 0
50 -195 0 -195 0 0 160 0 160 195 0 195 0 0 50 0 50 -194 0 -194 0 -51 -52z"/>
<path d="M1337 3262 l-47 -48 0 -165 0 -165 48 -47 48 -47 179 0 180 1 48 48
47 48 0 159 0 159 -51 53 -52 52 -176 0 -177 0 -47 -48z m403 -212 l0 -160
-180 0 -180 0 0 160 0 160 180 0 180 0 0 -160z"/>
<path d="M2012 3257 l-52 -53 0 -207 0 -207 50 0 50 0 0 210 0 210 85 0 85 0
0 -140 0 -140 50 0 50 0 0 140 0 140 85 0 85 0 0 -210 0 -210 45 0 45 0 0 213
0 213 -48 47 -48 47 -215 0 -215 0 -52 -53z"/>
<path d="M2710 3260 l0 -50 75 0 75 0 0 -160 0 -160 -75 0 -75 0 0 -50 0 -50
200 0 200 0 0 50 0 50 -75 0 -75 0 0 160 0 160 75 0 75 0 0 50 0 50 -200 0
-200 0 0 -50z"/>
<path d="M3281 3258 l-51 -53 0 -207 0 -208 50 0 50 0 0 210 0 210 180 0 180
0 0 -210 0 -210 45 0 45 0 0 213 0 213 -48 47 -48 47 -175 0 -176 0 -52 -52z"/>
<path d="M3952 3257 l-52 -53 0 -155 0 -155 53 -52 53 -52 167 0 167 0 0 -55
0 -55 -165 0 -165 0 0 -45 0 -45 168 0 168 0 47 48 47 48 0 260 0 260 -53 52
-53 52 -165 0 -165 0 -52 -53z m388 -207 l0 -160 -170 0 -170 0 0 160 0 160
170 0 170 0 0 -160z"/>
<path d="M1477 2422 c-45 -46 -47 -50 -47 -108 0 -58 1 -61 48 -107 l48 -47
167 0 167 0 0 -55 0 -55 -215 0 -215 0 0 -50 0 -50 215 0 216 0 49 50 c49 48
50 51 50 107 0 57 -2 60 -48 106 l-48 47 -167 0 -167 0 0 55 0 55 215 0 215 0
0 50 0 50 -218 0 -218 0 -47 -48z"/>
<path d="M2131 2418 l-51 -51 0 -157 0 -156 53 -52 53 -52 175 0 175 0 52 53
52 53 0 155 0 155 -53 52 -53 52 -176 0 -176 0 -51 -52z m409 -208 l0 -160
-180 0 -180 0 0 160 0 160 180 0 180 0 0 -160z"/>
<path d="M2807 2422 l-47 -48 0 -161 0 -162 46 -51 47 -50 178 0 179 0 50 49
50 49 0 165 0 164 -50 47 -49 46 -178 0 -179 0 -47 -48z m403 -212 l0 -160
-180 0 -180 0 0 160 0 160 180 0 180 0 0 -160z"/>
<path d="M3482 2417 l-52 -53 0 -207 0 -207 50 0 50 0 0 210 0 210 180 0 180
0 0 -210 0 -210 45 0 45 0 0 213 0 213 -48 47 -48 47 -175 0 -175 0 -52 -53z"/>
</g>
</svg>
